<?xml version="1.0" encoding="UTF-8"?>
<svg width="24px" height="24px" viewBox="0 0 24 24" version="1.1" xmlns="http://www.w3.org/2000/svg" xmlns:xlink="http://www.w3.org/1999/xlink">
    <!-- Generator: Sketch 60 (88103) - https://sketch.com -->
    <title>xhdpi/icon_自动化管理</title>
    <desc>Created with Sketch.</desc>
    <g id="icon_自动化管理" stroke="none" stroke-width="1" fill="none" fill-rule="evenodd">
        <g id="guanlizhongxin" transform="translate(1.000000, 1.000000)" fill="#3A4E64" fill-rule="nonzero">
            <path d="M11.5359375,0.000642900641 C11.972212,0.000642900641 12.2235192,0.559768097 12.2624081,0.956299014 L12.2624081,0.956299014 L12.3794016,2.18438348 C13.4110186,2.39804737 14.396688,2.79732445 15.2898591,3.36335784 L15.2898591,3.36335784 L16.1182905,2.68112557 C16.4914931,2.37153281 16.9695976,2.33635934 17.2284212,2.60016026 L17.2284212,2.60016026 L18.7937806,4.18263385 C19.052931,4.4454393 19.0235192,4.9398586 18.7264604,5.30785256 L18.7264604,5.30785256 L18.1065257,6.11153281 C18.7385519,7.08510747 19.1699244,8.09153281 19.3918199,9.10857655 L19.3918199,9.10857655 L20.5114277,9.21708333 C20.7865911,9.24495663 21.568944,9.44006977 21.568944,9.95439857 L21.568944,9.95439857 L21.568944,11.9463443 C21.568944,12.0807481 21.4888689,12.2017961 21.3663297,12.2526188 C20.3878983,10.863931 18.7901859,9.95539403 16.9800551,9.95539403 C16.9385519,9.95539403 16.8983558,9.96070325 16.8571793,9.96169872 C16.3414858,6.8449429 13.6821449,4.56362134 10.5695976,4.56788274 C7.04606823,4.56788274 4.17907476,7.47832014 4.17907476,11.0563895 C4.17907476,14.6344589 7.04606823,17.5448963 10.5695976,17.5448963 C11.0328813,17.5433539 11.4946299,17.4907277 11.9467218,17.3879431 C12.2671855,18.2377462 12.790871,18.9932239 13.470578,19.5862839 C13.4892055,19.603207 13.5065257,19.6214574 13.52548,19.6383805 C13.227114,19.730296 12.8901859,19.781397 12.5607741,19.828848 L12.5607741,19.828848 L12.3875715,19.8540667 L12.2620813,21.0705373 C12.2150225,21.5440517 11.902931,21.901759 11.5362643,21.901759 L11.5362643,21.901759 L9.33136233,21.901759 C8.96436886,21.901759 8.65227737,21.5437198 8.60554533,21.06921 L8.60554533,21.06921 L8.47384601,19.7946701 C7.51597171,19.5622036 6.60315261,19.1686459 5.7731924,18.630296 L5.7731924,18.630296 L4.75162378,19.4737952 C4.37907476,19.7820607 3.90423815,19.8169023 3.64672181,19.5554242 L3.64672181,19.5554242 L2.09149306,17.9719551 C1.8356107,17.7127998 1.87417279,17.2289989 2.18136233,16.8474001 L2.18136233,16.8474001 L3.03724468,15.7958465 C2.54247346,14.9875207 2.17776758,14.0720155 1.95162378,13.0682447 L1.95162378,13.0682447 L0.702604167,12.9305373 C0.277440777,12.8870682 0.000643381076,12.5977168 0.000643381076,12.1935539 L0.000643381076,12.1935539 L0.000643381076,9.9547304 C0.000643381076,9.5505675 0.277113976,9.26088424 0.705218555,9.21708333 L0.705218555,9.21708333 L1.86044731,9.08302601 C2.07196594,8.10171709 2.44542487,7.16380311 2.96502246,6.30896871 L2.96502246,6.30896871 L2.16175449,5.30387066 C1.85652574,4.92492646 1.82057804,4.43979825 2.07907476,4.17699283 L2.07907476,4.17699283 L3.63822509,2.59086916 C3.8986826,2.32507732 4.37580677,2.35825981 4.74802899,2.66851622 L4.74802899,2.66851622 L5.69541463,3.43868213 C6.58005514,2.84969268 7.51534926,2.43225678 8.48266953,2.1953337 L8.48266953,2.1953337 L8.60489175,0.956299014 C8.64443424,0.559436268 8.89574143,0.000642900641 9.33103555,0.000642900641 L9.33103555,0.000642900641 Z M16.8970486,10.3150924 C19.6646957,10.3150924 21.9078329,12.5930713 21.9078329,15.4029657 C21.9078329,18.2128601 19.6646957,20.490839 16.8970486,20.490839 C14.1297284,20.490839 11.8862643,18.2128601 11.8862643,15.4029657 C11.8862643,12.5930713 14.1297283,10.3150924 16.8970486,10.3150924 Z M16.9924734,11.4549114 C14.8699244,11.4549114 13.143127,13.2082749 13.143127,15.3634785 C13.143127,17.5186821 14.8699244,19.2720456 16.9924734,19.2720456 C19.1150225,19.2720456 20.8414931,17.5186821 20.8414931,15.3634785 C20.8414931,13.2082749 19.1146957,11.4549114 16.9924734,11.4549114 Z M16.9924734,11.7864046 C18.9349571,11.7864046 20.5146957,13.3911105 20.5146957,15.3631467 C20.5146957,17.3351829 18.9346303,18.9398888 16.9924734,18.9398888 C15.0503166,18.9398888 13.4699244,17.3351828 13.4699244,15.3631467 C13.4699244,13.3911105 15.0503166,11.7864046 16.9924734,11.7864046 Z M10.5695976,4.89970777 C13.5349571,4.89970777 16.0218852,7.05789781 16.5284212,9.97862179 C13.7614277,10.2122266 11.5862643,12.5625434 11.5862643,15.4324981 C11.5859331,15.9891415 11.6692446,16.5425781 11.8333231,17.0737048 C11.4192708,17.1632975 10.9960682,17.2130713 10.5695976,17.2130713 C7.22580677,17.2130713 4.50587214,14.4512915 4.50587214,11.0563895 C4.50587214,7.66148755 7.22613357,4.89970777 10.5695976,4.89970777 Z M16.9924734,13.5331316 C15.9986826,13.5331316 15.1901859,14.3540667 15.1901859,15.3631467 C15.1901859,16.3722266 15.9986826,17.1931618 16.9924734,17.1931618 C17.9859375,17.1931618 18.7944342,16.3722266 18.7944342,15.3631467 C18.7944342,14.3540667 17.9859375,13.5331316 16.9924734,13.5331316 Z M10.5695976,8.96821455 C9.4356107,8.96821455 8.51306168,9.90495665 8.51306168,11.0563895 C8.51306168,12.2078224 9.4356107,13.1445645 10.5695976,13.1445645 C11.7035845,13.1445645 12.6258068,12.2078224 12.6258068,11.0563895 C12.6258068,9.90495663 11.7035846,8.96821455 10.5695976,8.96821455 Z" id="形状结合"></path>
        </g>
    </g>
</svg>