<?xml version="1.0" encoding="UTF-8"?>
<svg width="24px" height="24px" viewBox="0 0 24 24" version="1.1" xmlns="http://www.w3.org/2000/svg" xmlns:xlink="http://www.w3.org/1999/xlink">
    <!-- Generator: Sketch 60 (88103) - https://sketch.com -->
    <title>xhdpi/icon_案件管理</title>
    <desc>Created with Sketch.</desc>
    <g id="icon_案件管理" stroke="none" stroke-width="1" fill="none" fill-rule="evenodd">
        <g id="ziyuan143" transform="translate(1.000000, 1.000000)" fill="#5B5BD5" fill-rule="nonzero">
            <path d="M20.6805422,15.3486883 L11.1195156,19.8192934 L1.22572493,15.1885472 C0.780671657,15.0074973 0.287519563,15.2515591 0.10624908,15.7425777 C-0.0750214023,16.2335964 0.119716494,16.7978676 0.548312239,17.0234971 L10.7867515,21.8077118 C11.0050855,21.9119134 11.2517724,21.9119134 11.4701064,21.8077118 L21.3579549,17.1836382 C21.7865507,16.9580087 21.9812886,16.3937374 21.8000181,15.9027188 C21.6187476,15.4117002 21.1255955,15.1676384 20.6805422,15.3486883 L20.6805422,15.3486883 Z M0.548312239,6.54760155 L10.7867515,11.3451614 C11.0050855,11.4493629 11.2517724,11.4493629 11.4701064,11.3451614 L21.3579549,6.6743799 C21.6866367,6.51715313 21.8999579,6.15474096 21.8999579,5.7535687 C21.8999579,5.35239644 21.6866367,4.98998426 21.3579549,4.8327575 L11.1195156,0.0752329463 C10.8943248,-0.0250814088 10.6435249,-0.0250814088 10.4183341,0.0752329463 L0.554254456,4.67261641 C0.33222473,4.77754157 0.158242816,4.98014248 0.0729349063,5.23311019 C-0.021503763,5.47794383 -0.0243417473,5.75512676 0.0650590806,6.00233378 C0.154459908,6.2495408 0.328595916,6.44602323 0.548312239,6.54760155 Z M3.16882977,5.66089689 L3.26882977,5.66089689 L3.16882977,5.66089689 Z" id="形状"></path>
            <path d="M20.6805422,10.2575365 L11.1195156,14.7281416 L1.22572493,10.104068 C0.780671657,9.92301807 0.287519563,10.1670799 0.10624908,10.6580985 C-0.0750214023,11.1491171 0.119716494,11.7133884 0.548312239,11.9390179 L10.7867515,16.7232326 C11.0050855,16.8274341 11.2517724,16.8274341 11.4701064,16.7232326 L21.3579549,12.0991589 C21.7865507,11.8735295 21.9812886,11.3092582 21.8000181,10.8182396 C21.6187476,10.3272209 21.1255955,10.0831591 20.6805422,10.2642091 L20.6805422,10.2575365 Z" id="路径"></path>
        </g>
    </g>
</svg>