<?xml version="1.0" encoding="UTF-8"?>
<svg width="24px" height="24px" viewBox="0 0 24 24" version="1.1" xmlns="http://www.w3.org/2000/svg" xmlns:xlink="http://www.w3.org/1999/xlink">
    <!-- Generator: Sketch 60 (88103) - https://sketch.com -->
    <title>xhdpi/icon_数据统计</title>
    <desc>Created with Sketch.</desc>
    <g id="icon_数据统计" stroke="none" stroke-width="1" fill="none" fill-rule="evenodd">
        <g id="数据" transform="translate(1.000000, 1.000000)" fill-rule="nonzero">
            <rect id="矩形" fill="#000000" opacity="0" x="0" y="0" width="22" height="22"></rect>
            <path d="M22,10.0289063 L11.9753906,10.0289063 L11.9753906,0 C14.5943359,0.156835938 17.0521484,1.2546875 18.8998047,3.10234375 C20.7453125,4.94785156 21.8431641,7.40566406 22,10.0289063 Z" id="路径" fill="#5B5BD5"></path>
            <path d="M2.59316406,18.3412109 C0.921679687,16.4097656 0,13.9583984 0,11.4210938 C0,8.59375 1.1,5.93828125 3.10019531,3.94023438 C4.89414063,2.14628906 7.28105469,1.06132813 9.82265625,0.878710938 L9.82265625,11.1310547 L2.59316406,18.3412109 Z M10.5853516,22 C13.4105469,22 16.0638672,20.9 18.0597656,18.9041016 C19.8580078,17.1058594 20.9429687,14.7189453 21.1234375,12.1773438 L10.9183594,12.1451172 L3.65878906,19.4068359 C5.59238281,21.0804687 8.04375,22 10.5789063,22 L10.5853516,22 Z" id="形状" fill="#5B5BD5"></path>
        </g>
    </g>
</svg>