<?xml version="1.0" encoding="UTF-8"?>
<svg width="24px" height="24px" viewBox="0 0 24 24" version="1.1" xmlns="http://www.w3.org/2000/svg" xmlns:xlink="http://www.w3.org/1999/xlink">
    <!-- Generator: Sketch 60 (88103) - https://sketch.com -->
    <title>xhdpi/icon_消息中心</title>
    <desc>Created with Sketch.</desc>
    <g id="icon_消息中心" stroke="none" stroke-width="1" fill="none" fill-rule="evenodd">
        <g id="xiaoxizhongxin" transform="translate(1.000000, 2.000000)" fill="#5B5BD5" fill-rule="nonzero">
            <path d="M1.17245821,0.0409692267 C1.32910436,0.0101831043 1.48933236,0.0182348446 1.64788881,0.0172876059 C7.24392914,0.0172876059 12.8397307,0.0172876059 18.435771,0.0175244155 C18.6635765,0.0177612252 18.8913821,0.0717553683 19.0936371,0.176428204 C19.4635226,0.364697237 19.7419516,0.720158628 19.8317366,1.12298332 C19.8697041,1.27857169 19.8689878,1.43960683 19.8673162,1.59874744 C19.4699699,1.5895116 19.0723848,1.59685291 18.6747997,1.59448474 C13.3653072,1.59472155 8.05557588,1.59424793 2.74584459,1.59495837 C2.35518437,1.59306384 1.96929997,1.76025622 1.70281049,2.04301498 C1.45685693,2.30090802 1.3142994,2.65281719 1.31477697,3.00804177 C1.31453818,6.83854687 1.31525455,10.6690519 1.31429938,14.499557 C0.953726686,14.4718495 0.607958969,14.3003945 0.367020012,14.0330287 C0.147333351,13.7928969 0.0186256041,13.4765102 -1.77635684e-14,13.1534927 L-1.77635684e-14,1.35458975 C0.0191031896,1.12487785 0.0852479847,0.898007748 0.207747177,0.701213335 C0.415733138,0.359013651 0.775111878,0.110830079 1.17245821,0.0409692267 Z" id="路径"></path>
            <path d="M2.4702811,2.71060038 C2.73318874,2.45791729 3.09662689,2.31274885 3.46269175,2.31464338 C9.13013026,2.31446578 14.79733,2.31446578 20.4645297,2.31464338 C20.8188938,2.31298568 21.1708701,2.44868146 21.4313898,2.68715557 C21.7045654,2.93155009 21.8695692,3.28345924 21.89703,3.64649875 L21.89703,15.4484803 C21.8795984,15.7454481 21.7716654,16.0374427 21.582305,16.2688123 C21.3213077,16.5956189 20.9089176,16.7973865 20.4881699,16.8009387 C19.2961309,16.801886 18.1043307,16.8009387 16.9122917,16.8014123 C16.5101696,17.4903112 16.1094802,18.1801573 15.7078357,18.8695299 C15.5975148,19.0483262 15.5125056,19.2489097 15.3496509,19.389105 C15.1118162,19.6076865 14.7650933,19.6995713 14.448458,19.6308945 C14.1714617,19.5740586 13.9231203,19.3959727 13.7810403,19.1537095 C13.3244741,18.3696104 12.8683855,17.5852746 12.4113417,16.8014123 C9.42837877,16.8011755 6.44541586,16.8016491 3.46245294,16.8011755 C3.0608084,16.8037805 2.66346208,16.6273523 2.39673381,16.3299109 C2.15961548,16.0703601 2.02613196,15.721056 2.02964352,15.3708045 L2.02964352,3.74004123 C2.02660952,3.35616187 2.18994179,2.97512428 2.4702811,2.71060038 M6.59895775,8.1583246 C6.07767948,8.1988202 5.58816028,8.50407652 5.32214836,8.95023859 C5.09887984,9.31540947 5.03177989,9.76867604 5.13493711,10.1828679 C5.22042388,10.5338298 5.42864864,10.8530583 5.71400253,11.0768498 C5.99434182,11.2989835 6.34989992,11.4259171 6.70880107,11.4313639 C7.05719548,11.4394157 7.40678382,11.3335587 7.69118256,11.1339225 C7.98202862,10.9321549 8.20434197,10.6349504 8.31346892,10.2998552 C8.42116316,9.97281175 8.42116316,9.61214039 8.31370772,9.28509697 C8.19956617,8.93413507 7.96125389,8.62532651 7.65082708,8.42308531 C7.34350452,8.22013367 6.96621655,8.1265912 6.59895775,8.1583246 M11.8275005,8.1583246 C11.3004913,8.19953065 10.8064351,8.51165464 10.5425723,8.96539483 C10.3138116,9.34880057 10.2562632,9.82669604 10.383777,10.2534392 C10.4874118,10.6093742 10.7187992,10.9259977 11.0249278,11.1372379 C11.310998,11.3364005 11.6620191,11.4408366 12.0113687,11.4311271 C12.3411375,11.4242594 12.6675632,11.3155607 12.9347691,11.1239762 C13.2184514,10.9226823 13.4352726,10.6302141 13.542728,10.3010393 C13.6506611,9.97352221 13.6506611,9.61237722 13.5432056,9.28486016 C13.4288253,8.93366145 13.1900354,8.62437926 12.8788922,8.42213805 C12.5718085,8.21966003 12.1947593,8.12635439 11.8275005,8.1583246 M17.056282,8.15856141 C16.5416899,8.19905701 16.058618,8.49720885 15.7909346,8.93413507 C15.5772176,9.27538748 15.4998497,9.69644703 15.5743522,10.09122 C15.6445564,10.4774675 15.8625715,10.834113 16.1729983,11.0770866 C16.6797104,11.4860685 17.436913,11.5474039 18.0038002,11.2250968 C18.365328,11.0266447 18.6466225,10.6889445 18.7727035,10.2986711 C18.8799202,9.97186451 18.8799202,9.61166677 18.7724647,9.28486016 C18.6566517,8.92845149 18.4123696,8.61538022 18.0945403,8.41313903 C17.7898445,8.21681824 17.4180487,8.12682803 17.056282,8.15856141 L17.056282,8.15856141 Z" id="形状"></path>
        </g>
    </g>
</svg>