<?xml version="1.0" encoding="UTF-8"?>
<svg width="24px" height="24px" viewBox="0 0 24 24" version="1.1" xmlns="http://www.w3.org/2000/svg" xmlns:xlink="http://www.w3.org/1999/xlink">
    <!-- Generator: Sketch 60 (88103) - https://sketch.com -->
    <title>xhdpi/icon_我的案件</title>
    <desc>Created with Sketch.</desc>
    <g id="icon_我的案件" stroke="none" stroke-width="1" fill="none" fill-rule="evenodd">
        <path d="M17.9700563,19 C22.2220575,19 22.8800771,21.193338 22.9814705,21.8271587 L22.994997,21.9096936 L22.994997,21.9096936 L22.9998518,21.9940973 C22.9999901,22.5116899 22.5087887,22.9393627 21.8829909,22.9940853 L21.7469612,23 L14.2530388,23 C13.5638897,23 13,22.5486608 13,21.9970635 C13,18.9921694 17.9700563,19 17.9700563,19 Z M9.05807837,12.7279286 C10.4029784,12.7279286 11.2557277,13.5704533 11.2557277,14.9268844 L11.2557277,14.9268844 L11.2557277,20.7908487 C11.2557277,22.1452174 10.089635,22.9898661 9.05807837,22.9898661 L9.05807837,22.9898661 L3.19768011,22.9898661 C1.85274935,22.9898661 1,22.1459254 1,20.7908487 L1,20.7908487 L1,15.1022603 C1,13.7472452 1.85274935,12.7279286 3.19768011,12.7279286 L3.19768011,12.7279286 Z M20.121154,13.8787719 C20.879064,14.6365736 21.1751007,15.7411614 20.8977429,16.7764216 C20.6203851,17.8116818 19.8117732,18.6203219 18.7765227,18.8977158 C17.7412723,19.1751097 16.6366741,18.8791116 15.878846,18.1212281 C15.120936,17.3634264 14.8248993,16.2588386 15.1022571,15.2235784 C15.3796149,14.1883182 16.1882268,13.3796781 17.2234773,13.1022842 C18.2587277,12.8248903 19.3633259,13.1208884 20.121154,13.8787719 Z M20.7789364,1 C22.1252823,1.00141606 22.976555,1.84394071 22.976555,3.19898662 L22.976555,9.06295092 C22.976555,10.528234 21.8076011,11.2619375 20.7788749,11.2619375 L14.9185074,11.2619375 C13.5735459,11.2619375 12.7194121,10.2426209 12.7194121,8.88542014 L12.720858,3.19898662 C12.720858,1.84394074 13.5735766,1 14.9185381,1 L20.7789364,1 Z M9.05807837,1 C10.4130078,1 11.2571737,1.85468433 11.2557296,3.19898662 L11.2557296,3.19898662 L11.2557296,9.06295092 C11.2557296,10.4094081 10.4130078,11.2619375 9.05807837,11.2619375 L9.05807837,11.2619375 L3.19768011,11.2619375 C1.84413509,11.2619375 1,10.4151339 1,9.06295092 L1,9.06295092 L1,3.19898662 C1,1.85252944 1.84275068,1 3.19768011,1 L3.19768011,1 Z" id="形状结合" fill="#5B5BD5" fill-rule="nonzero"></path>
    </g>
</svg>