<?xml version="1.0" encoding="UTF-8"?>
<svg width="24px" height="24px" viewBox="0 0 24 24" version="1.1" xmlns="http://www.w3.org/2000/svg" xmlns:xlink="http://www.w3.org/1999/xlink">
    <!-- Generator: Sketch 60 (88103) - https://sketch.com -->
    <title>xhdpi/icon_查询管理</title>
    <desc>Created with Sketch.</desc>
    <g id="icon_查询管理" stroke="none" stroke-width="1" fill="none" fill-rule="evenodd">
        <g id="rizhi" transform="translate(2.000000, 1.000000)" fill="#5B5BD5" fill-rule="nonzero">
            <path d="M20.6502268,21.0761856 L18.1067254,18.5113773 C19.7686572,15.9678759 19.0548788,12.558785 16.5113773,10.8968532 C13.9678759,9.23492138 10.558785,9.94869979 8.8968532,12.4922012 C7.23492138,15.0357026 7.94869979,18.4447935 10.4922012,20.1067254 C11.3897509,20.6926629 12.4391117,21.0042751 13.5124427,21.0016117 C14.5937637,20.9989484 15.6511146,20.6766827 16.5486643,20.0747651 L19.0948291,22.63691 C19.411768,22.9538489 19.9284583,22.9538489 20.2453972,22.63691 L20.6528901,22.2267538 C20.9698291,21.9044881 20.9698291,21.3904612 20.6528901,21.0681955 L20.6502268,21.0761856 L20.6502268,21.0761856 Z M16.3844085,16.8023772 C16.0008858,17.6120363 15.3084142,18.2325974 14.4614681,18.5255662 C14.1232224,18.6587338 13.7636698,18.7226542 13.4014539,18.7093375 C11.5477608,18.735971 10.0269866,17.2551471 10.0003531,15.4014539 C9.97371956,13.5477608 11.4572068,12.0269866 13.3109,12.0003531 C15.1645931,11.9737196 16.6853673,13.4572068 16.7093375,15.3082366 C16.7173275,15.8275903 16.6028034,16.3389539 16.3790818,16.8050406 L16.3844085,16.8023772 L16.3844085,16.8023772 Z M6.37758875,16.4161929 L3.78869191,16.4161929 C3.34100718,16.3986809 2.99053399,16.0284285 3.00844138,15.59063 C3.02634877,15.1753468 3.36403097,14.8451217 3.78869191,14.8276097 L6.33665757,14.8276097 C6.40061254,14.0971117 6.58736102,13.3816238 6.88411204,12.7111667 L3.79125011,12.7111667 C3.34356538,12.6936548 2.99309219,12.3234023 3.01099958,11.8856038 C3.02890697,11.4703207 3.36658917,11.1400955 3.79125011,11.1225836 L7.86646025,11.1225836 C8.66205997,10.1594269 9.71092134,9.42642711 10.9004836,9.00614055 L3.79125011,9.00614055 C3.34356538,9.00614055 2.977743,8.65089834 2.9803012,8.21059814 C2.9803012,7.77279964 3.34356538,7.41755743 3.79125011,7.41755743 L16.2113036,7.41755743 C16.6589883,7.41755743 17.0248107,7.77279964 17.0222525,8.21309984 C17.0222525,8.65089834 16.6589883,9.00614055 16.2113036,9.00614055 L15.6024524,9.00614055 C17.7999449,9.78917444 19.4525411,11.5979077 20,13.8244257 L20,2.4091426 C20.0025537,1.08574028 18.9076448,0.00750511713 17.5543578,0 L2.44307953,0 C1.08979254,0.0100068228 0,1.08323857 0,2.40664089 L0,19.5933591 C0,20.9167614 1.09235074,21.9924949 2.44563772,22 L11.3072372,22 C8.69020015,21.2419832 6.76387672,19.0604958 6.37758875,16.4161929 Z M2.95241477,2.97372159 L15.8856534,2.97372159 C16.3517401,2.99236506 16.7166193,3.38654119 16.6979759,3.85262784 C16.6793324,4.29474432 16.3277699,4.64630682 15.8856534,4.66495028 L2.95241477,4.66495028 C2.48632812,4.64630682 2.12144886,4.25213068 2.14009233,3.78604403 C2.1587358,3.34392756 2.51296165,2.99236506 2.95241477,2.97372159 Z" id="形状"></path>
        </g>
    </g>
</svg>