<?xml version="1.0" encoding="UTF-8"?>
<svg width="24px" height="24px" viewBox="0 0 24 24" version="1.1" xmlns="http://www.w3.org/2000/svg" xmlns:xlink="http://www.w3.org/1999/xlink">
    <!-- Generator: Sketch 60 (88103) - https://sketch.com -->
    <title>xhdpi/icon_报表管理</title>
    <desc>Created with Sketch.</desc>
    <g id="icon_报表管理" stroke="none" stroke-width="1" fill="none" fill-rule="evenodd">
        <g id="报表" fill-rule="nonzero">
            <rect id="矩形" fill="#000000" opacity="0" x="0" y="0" width="24" height="24"></rect>
            <path d="M3.17647059,3.44444444 L18.4705882,3.44444444 C19.120335,3.44444444 19.6470588,3.99165197 19.6470588,4.66666667 L19.6470588,21.7777778 C19.6470588,22.4527925 19.120335,23 18.4705882,23 L3.17647059,23 C2.52672382,23 2,22.4527925 2,21.7777778 L2,4.66666667 C2,3.99165197 2.52672382,3.44444444 3.17647059,3.44444444 Z M5.52941176,14.4444444 L5.52941176,19.3333333 L6.70588235,19.3333333 L6.70588235,14.4444444 L5.52941176,14.4444444 Z M10.2352941,15.6666667 L10.2352941,19.3333333 L11.4117647,19.3333333 L11.4117647,15.6666667 L10.2352941,15.6666667 Z M14.9411765,12 L14.9411765,19.3333333 L16.1176471,19.3333333 L16.1176471,12 L14.9411765,12 Z M10.8435202,12.22 L16.5941176,8.67555556 L15.9941176,7.62444444 L11.0388327,10.68 L8.43295037,7.91042535 L4.85059743,10.3915603 L5.50234375,11.4084397 L8.27293199,9.48955078 L10.8435202,12.2212174 L10.8435202,12.22 Z M20.8235294,20.5555556 L20.8235294,3.44444444 C20.8235294,2.76942975 20.2968056,2.22222222 19.6470588,2.22222222 L4.35294118,2.22222222 L4.35294118,1 L19.6470588,1 C20.2710976,1 20.8695774,1.25753894 21.3108395,1.7159612 C21.7521016,2.17438346 22,2.79613747 22,3.44444444 L22,20.5555556 L20.8235294,20.5555556 Z" id="形状" fill="#5B5BD5"></path>
        </g>
    </g>
</svg>