<?xml version="1.0" encoding="UTF-8"?>
<svg width="14px" height="14px" viewBox="0 0 14 14" version="1.1" xmlns="http://www.w3.org/2000/svg" xmlns:xlink="http://www.w3.org/1999/xlink">
    <title>筛选</title>
    <g id="案件管理子系统" stroke="none" stroke-width="1" fill="none" fill-rule="evenodd">
        <g id="未选择状态" transform="translate(-1405.000000, -187.000000)" fill-rule="nonzero">
            <g id="编组备份" transform="translate(1400.000000, 182.000000)">
                <g id="筛选-2" transform="translate(5.000000, 5.000000)">
                    <g id="筛选">
                        <rect id="矩形" fill="#000000" opacity="0" x="0" y="0" width="14" height="14"></rect>
                        <path d="M10.9573396,2.48069218 C10.8234728,2.1864328 10.5292796,1.99822222 10.2060062,2.00001266 L2.83267291,2.00001266 C2.50600625,2.00001266 2.21667291,2.18435884 2.07900625,2.48069218 C1.94133959,2.77702552 1.98567291,3.11535884 2.19567291,3.36502551 L4.79033959,6.44735884 L4.79033959,10.5726922 C4.79033959,10.9623588 5.02133959,11.3123588 5.38067291,11.4640255 L7.24033959,12.2596922 C7.33133959,12.2993588 7.42700625,12.3180255 7.52500625,12.3180255 C7.66500625,12.3180255 7.80267291,12.2783588 7.92167291,12.1990255 C8.12444093,12.0659439 8.24640474,11.839565 8.24600625,11.5970255 L8.24600625,6.44735884 L10.8406729,3.36502551 C11.0506729,3.11535884 11.0950062,2.77702551 10.9573396,2.48069218 L10.9573396,2.48069218 Z M7.31267291,6.10669218 L7.31267291,11.2750255 L5.74700625,10.6076922 C5.73300625,10.6006922 5.72367291,10.5890255 5.72367291,10.5726922 L5.72367291,6.10669218 L3.05433959,2.93335884 L9.98667291,2.93335884 L7.31267291,6.10669218 Z M11.8136729,10.3206922 L10.3016729,10.3206922 C10.0450062,10.3206922 9.83500625,10.5306922 9.83500625,10.7873588 C9.83500625,11.0440255 10.0450062,11.2540255 10.3016729,11.2540255 L11.8136729,11.2540255 C12.0703396,11.2540255 12.2803396,11.0440255 12.2803396,10.7873588 C12.2803396,10.5306922 12.0703396,10.3206922 11.8136729,10.3206922 Z M11.8136729,8.30235884 L10.3016729,8.30235884 C10.0450062,8.30235884 9.83500625,8.51235884 9.83500625,8.76902551 C9.83500625,9.02569217 10.0450062,9.23569218 10.3016729,9.23569218 L11.8136729,9.23569218 C12.0703396,9.23569218 12.2803396,9.02569218 12.2803396,8.76902551 C12.2803396,8.51235883 12.0703396,8.30235884 11.8136729,8.30235884 Z M9.83500625,6.75302551 C9.83500625,7.00969217 10.0450062,7.21969218 10.3016729,7.21969218 L11.8136729,7.21969218 C12.0703396,7.21969218 12.2803396,7.00969218 12.2803396,6.75302551 C12.2803396,6.49635883 12.0703396,6.28635884 11.8136729,6.28635884 L10.3016729,6.28635884 C10.04394,6.28635884 9.83500625,6.49529263 9.83500625,6.75302551 L9.83500625,6.75302551 Z" id="形状" fill="#777E8C"></path>
                    </g>
                </g>
            </g>
        </g>
    </g>
</svg>