<?xml version="1.0" encoding="UTF-8"?>
<svg width="24px" height="24px" viewBox="0 0 24 24" version="1.1" xmlns="http://www.w3.org/2000/svg" xmlns:xlink="http://www.w3.org/1999/xlink">
    <title></title>
    <g id="案件管理子系统" stroke="none" stroke-width="1" fill="none" fill-rule="evenodd">
        <g id="2-2列表展开" transform="translate(-612.000000, -240.000000)" fill="#5B5BD5">
            <g id="形状结合-6" transform="translate(612.000000, 240.000000)">
                <path d="M24,0 L24,20 L20,24 L0,24 L0,0 L24,0 Z M7.776,5.704 C7.008,8.168 5.728,10.6 4.352,12.2 C4.544,12.488 4.864,13.112 4.976,13.4 C5.488,12.776 6.016,12.056 6.48,11.272 L6.48,20.216 L7.616,20.216 L7.616,9.144 C8.096,8.136 8.528,7.064 8.864,6.024 L7.776,5.704 Z M16.656,6.056 C16.464,12.36 15.84,16.792 12.4,19.24 C12.688,19.448 13.184,19.912 13.36,20.136 C14.912,18.904 15.92,17.32 16.592,15.352 C17.312,16.904 18,18.616 18.304,19.72 L19.408,19.16 C19.024,17.8 17.968,15.544 17.024,13.768 C17.536,11.608 17.728,9.064 17.856,6.072 L16.656,6.056 Z M10.976,6.712 L9.808,6.712 L9.808,16.296 C9.808,17.016 9.472,17.48 9.248,17.656 C9.44,17.896 9.76,18.44 9.888,18.712 C9.928,18.664 9.97025,18.61625 10.0204375,18.5646562 L10.0848365,18.5006367 C10.46399,18.1355 11.288,17.5316 14.192,15.512 C14.096,15.256 13.936,14.808 13.856,14.488 L10.976,16.392 L10.976,6.712 Z M12.8,7.08 L11.84,7.448 C12.672,9.048 13.504,11.16 13.792,12.44 L14.864,12.024 C14.56,10.712 13.68,8.648 12.8,7.08 Z" id="形状结合"></path>
            </g>
        </g>
    </g>
</svg>