<?xml version="1.0" encoding="UTF-8"?>
<svg width="24px" height="24px" viewBox="0 0 24 24" version="1.1" xmlns="http://www.w3.org/2000/svg" xmlns:xlink="http://www.w3.org/1999/xlink">
    <title></title>
    <g id="案件管理子系统" stroke="none" stroke-width="1" fill="none" fill-rule="evenodd">
        <g id="2-2列表展开" transform="translate(-856.000000, -240.000000)" fill="#5B5BD5">
            <g id="形状结合-3" transform="translate(856.000000, 240.000000)">
                <path d="M24,0 L24,20 L20,24 L0,24 L0,0 L24,0 Z M14.736,10.008 L13.696,10.312 C13.952,10.776 14.24,11.352 14.416,11.832 L11.216,11.832 C11.424,11.352 11.616,10.824 11.776,10.328 L10.72,10.04 C10.176,11.832 9.232,13.544 8.096,14.664 C8.304,14.936 8.656,15.496 8.752,15.736 C9.168,15.304 9.568,14.776 9.936,14.216 L9.936,20.248 L11.024,20.248 L11.024,19.496 L19.28,19.496 L19.28,18.472 L15.392,18.472 L15.392,17.176 L18.64,17.176 L18.64,16.264 L15.392,16.264 L15.392,14.968 L18.64,14.968 L18.64,14.056 L15.392,14.056 L15.392,12.824 L19.008,12.824 L19.008,11.832 L15.632,11.832 C15.472,11.32 15.088,10.568 14.736,10.008 Z M7.712,5.704 C7.008,8.152 5.856,10.6 4.56,12.2 C4.752,12.504 5.072,13.128 5.2,13.4 C5.664,12.792 6.128,12.088 6.56,11.32 L6.56,20.232 L7.696,20.232 L7.696,9.032 C8.112,8.04 8.496,7.016 8.8,6.024 L7.712,5.704 Z M14.256,17.176 L14.256,18.472 L11.024,18.472 L11.024,17.176 L14.256,17.176 Z M14.256,14.968 L14.256,16.264 L11.024,16.264 L11.024,14.968 L14.256,14.968 Z M14.256,12.824 L14.256,14.056 L11.024,14.056 L11.024,12.824 L14.256,12.824 Z M14.832,5.64 L13.696,5.64 L13.696,8.808 L10.928,8.808 L10.928,6.36 L9.84,6.36 L9.84,9.864 L18.56,9.864 L18.56,6.36 L17.424,6.36 L17.424,8.808 L14.832,8.808 L14.832,5.64 Z" id="形状结合"></path>
            </g>
        </g>
    </g>
</svg>