<?xml version="1.0" encoding="utf-8"?>
<!-- Generator: Adobe Illustrator 22.1.0, SVG Export Plug-In . SVG Version: 6.00 Build 0)  -->
<svg version="1.1" id="图层_1" xmlns="http://www.w3.org/2000/svg" xmlns:xlink="http://www.w3.org/1999/xlink" x="0px" y="0px"
	 viewBox="0 0 26 24" style="enable-background:new 0 0 26 24;" xml:space="preserve">
<style type="text/css">
	.st0{fill:#F96F4F;}
</style>
<title>橙</title>
<desc>Created with Sketch.</desc>
<g>
	<path class="st0" d="M12.2,13.8v3.9h1.5v-3.9c0-0.2-0.1-0.4-0.2-0.5C13.1,12.7,12.2,13.1,12.2,13.8z"/>
	<path class="st0" d="M10.7,17.6v-3.9c0-1.3,1-2.3,2.3-2.3c1.3,0,2.3,1,2.3,2.3v3.9H20c-0.6-3.3-1.1-6.6-1.7-9.9
		c-0.2-1.1-1.1-1.9-2.3-1.9H9.9c-1.1,0-2.1,0.8-2.3,1.9C7.1,11,6.6,14.3,6,17.6H10.7z"/>
	<path class="st0" d="M24.5,22.4h-1.6v-2.5c0-0.4-0.3-0.8-0.8-0.8H3.9c-0.4,0-0.8,0.3-0.8,0.8v2.5H1.5c-0.4,0-0.8,0.3-0.8,0.8
		S1.1,24,1.5,24h23c0.4,0,0.8-0.3,0.8-0.8S24.9,22.4,24.5,22.4z"/>
	<path class="st0" d="M2.6,13.8c0.4,0,0.8-0.3,0.8-0.8c0-0.4-0.3-0.8-0.8-0.8H0.8C0.3,12.2,0,12.6,0,13c0,0.4,0.3,0.8,0.8,0.8H2.6z"
		/>
	<path class="st0" d="M25.2,12.2h-1.9c-0.4,0-0.8,0.3-0.8,0.8s0.3,0.8,0.8,0.8h1.9c0.4,0,0.8-0.3,0.8-0.8S25.7,12.2,25.2,12.2z"/>
	<path class="st0" d="M13,3.4c0.4,0,0.8-0.3,0.8-0.8V0.8C13.8,0.3,13.4,0,13,0s-0.8,0.3-0.8,0.8v1.9C12.2,3.1,12.6,3.4,13,3.4z"/>
	<path class="st0" d="M5.1,6.2c0.1,0.1,0.3,0.2,0.5,0.2c0.2,0,0.4-0.1,0.5-0.2c0.3-0.3,0.3-0.8,0-1.1L4.9,3.8
		c-0.3-0.3-0.8-0.3-1.1,0s-0.3,0.8,0,1.1L5.1,6.2z"/>
	<path class="st0" d="M20.3,6.4c0.2,0,0.4-0.1,0.5-0.2l1.3-1.3c0.3-0.3,0.3-0.8,0-1.1c-0.3-0.3-0.8-0.3-1.1,0l-1.3,1.3
		c-0.3,0.3-0.3,0.8,0,1.1C19.9,6.4,20.1,6.4,20.3,6.4z"/>
</g>
</svg>
